<svg width="52" height="30" viewBox="0 0 52 30" fill="none" xmlns="http://www.w3.org/2000/svg">
<ellipse cx="18.0244" cy="13.489" rx="7.25861" ry="7.86349" fill="#FDEEBB"/>
<path d="M20.3347 17.5696C20.1816 16.1897 19.5642 14.9028 18.5837 13.9199C17.6033 12.937 16.3179 12.3163 14.9385 12.1597C13.559 12.0031 12.1673 12.3198 10.9914 13.0579C9.81559 13.7961 8.92542 14.9118 8.46687 16.2222C7.4161 16.3082 6.43934 16.7973 5.74103 17.5872C5.04272 18.377 4.67701 19.4064 4.72045 20.4598C4.76389 21.5132 5.2131 22.5089 5.97407 23.2386C6.73503 23.9683 7.74875 24.3753 8.80303 24.3745H20.3714C21.2738 24.3697 22.1373 24.0065 22.772 23.365C23.4066 22.7234 23.7604 21.8561 23.7555 20.9537C23.7507 20.0513 23.3875 19.1878 22.746 18.5532C22.1044 17.9185 21.2371 17.5647 20.3347 17.5696V17.5696Z" fill="#F5F5F5"/>
<path d="M30.064 11.902V20.5H28.9V16.588H24.262V20.5H23.098V11.902H24.262V15.736H28.9V11.902H30.064ZM33.4261 20.5H32.2621V11.902H33.4261V20.5ZM46.7673 11.902L44.0853 20.5H43.0413L40.8633 13.942C40.8433 13.878 40.8233 13.81 40.8033 13.738C40.7873 13.666 40.7693 13.59 40.7493 13.51C40.7293 13.59 40.7093 13.666 40.6893 13.738C40.6693 13.81 40.6493 13.878 40.6293 13.942L38.4393 20.5H37.3953L34.7133 11.902H35.6793C35.7833 11.902 35.8693 11.928 35.9373 11.98C36.0093 12.032 36.0553 12.098 36.0753 12.178L37.8513 18.154C37.8793 18.262 37.9053 18.378 37.9293 18.502C37.9573 18.626 37.9833 18.758 38.0073 18.898C38.0353 18.758 38.0633 18.626 38.0913 18.502C38.1233 18.374 38.1573 18.258 38.1933 18.154L40.2153 12.178C40.2393 12.11 40.2853 12.048 40.3533 11.992C40.4253 11.932 40.5113 11.902 40.6113 11.902H40.9473C41.0513 11.902 41.1353 11.928 41.1993 11.98C41.2633 12.032 41.3113 12.098 41.3433 12.178L43.3593 18.154C43.3953 18.258 43.4273 18.37 43.4553 18.49C43.4873 18.61 43.5173 18.736 43.5453 18.868C43.5653 18.736 43.5873 18.61 43.6113 18.49C43.6353 18.37 43.6613 18.258 43.6893 18.154L45.4713 12.178C45.4913 12.106 45.5353 12.042 45.6033 11.986C45.6753 11.93 45.7613 11.902 45.8613 11.902H46.7673Z" fill="#465554"/>
</svg>
